<svg xmlns="http://www.w3.org/2000/svg" width="15" height="16" fill="none" viewBox="0 0 15 16">
    <path stroke="#85859B" stroke-width="1.2" d="M5.28 7.55c1.653 0 2.993-1.34 2.993-2.993 0-1.653-1.34-2.993-2.993-2.993-1.653 0-2.993 1.34-2.993 2.993 0 1.653 1.34 2.994 2.993 2.994zM.79 15.033v-1.496c0-.794.315-1.556.877-2.117.561-.561 1.322-.877 2.116-.877h2.993c.794 0 1.555.316 2.117.877.56.561.876 1.323.876 2.117v1.496M10.518 1.662c.643.164 1.214.539 1.621 1.064.408.525.63 1.17.63 1.835s-.222 1.31-.63 1.835c-.407.525-.978.9-1.621 1.065M14.258 15.033v-1.496c-.003-.661-.226-1.302-.632-1.823-.406-.521-.973-.893-1.612-1.058"/>
</svg>
