<svg xmlns="http://www.w3.org/2000/svg" width="16" height="16" fill="none" viewBox="0 0 16 16">
    <path stroke="#58D0E3" stroke-linecap="round" stroke-linejoin="round" stroke-width="1.2" d="M15.011 7.052c-.214-1.54-.929-2.969-2.034-4.063-1.106-1.095-2.54-1.796-4.084-1.995-1.543-.2-3.108.115-4.456.893-1.347.778-2.4 1.978-3 3.414M1 1.798v3.503h3.503M1 8.804c.214 1.54.93 2.969 2.035 4.063 1.105 1.095 2.54 1.796 4.083 1.995 1.543.2 3.109-.114 4.456-.893 1.347-.778 2.401-1.978 3-3.414m.437 3.503v-3.503H11.51"/>
</svg>
