<svg xmlns="http://www.w3.org/2000/svg" xmlns:xlink="http://www.w3.org/1999/xlink" width="300" height="300" viewBox="0 0 300 300">
  <defs>
    <linearGradient id="linear-gradient" x1="0.5" y1="0.048" x2="0.5" y2="0.972" gradientUnits="objectBoundingBox">
      <stop offset="0" stop-color="#26a2dc"/>
      <stop offset="1" stop-color="#0a6fc1"/>
    </linearGradient>
    <filter id="Oval_4" x="16.641" y="16.438" width="268.373" height="268.372" filterUnits="userSpaceOnUse">
      <feOffset input="SourceAlpha"/>
      <feGaussianBlur stdDeviation="2" result="blur"/>
      <feFlood flood-opacity="0.502"/>
      <feComposite operator="in" in2="blur"/>
      <feComposite in="SourceGraphic"/>
    </filter>
  </defs>
  <g id="edisn_icon" data-name="edisn icon" transform="translate(0 -0.075)">
    <g id="Group_425" data-name="Group 425" transform="translate(0 0.075)">
      <g id="Oval_4-2" data-name="Oval 4" fill="rgba(33,33,33,0.6)" stroke="#fff" stroke-miterlimit="10" stroke-width="5">
        <circle cx="150" cy="150" r="150" stroke="none"/>
        <circle cx="150" cy="150" r="147.5" fill="none"/>
      </g>
      <g transform="matrix(1, 0, 0, 1, 0, 0)" filter="url(#Oval_4)">
        <path id="Oval_4-3" data-name="Oval 4" d="M128.186,0A128.186,128.186,0,1,1,0,128.186,128.186,128.186,0,0,1,128.186,0Z" transform="translate(22.64 22.44)" fill="url(#linear-gradient)"/>
      </g>
      <path id="Fill_1" data-name="Fill 1" d="M82.493,138.173a8.612,8.612,0,0,1-5.96,3.006c-10.484.874-20.936,2.147-31.474,2.319-5.39.088-8.5,2.771-8.986,7.582-.442,4.374,2.3,8.09,7.28,9.105a71.452,71.452,0,0,0,20.663,1.2A131.36,131.36,0,0,0,82.832,158.4c-.635,1.562-1.736,1.764-2.606,2.166A43.522,43.522,0,0,1,62.6,164.624a51.148,51.148,0,0,0-11.3,1.07c-6.253,1.538-8.062,5.593-5.45,11.4.541,1.2,2.222,2.743.917,3.74-1.37,1.048-2.322-1.085-3.3-1.916a75.923,75.923,0,0,1-6.57-6.3,20.922,20.922,0,0,1-5.546-14.555c-.04-8.068-.068-16.136-.024-24.2.055-10.237,4.906-15.139,15.208-15.433,6.536-.186,13.093.435,19.61-.616A58.183,58.183,0,0,0,77.226,115.3a11.729,11.729,0,0,0,8.056-11.564c0-2.368-.62-4.713-3.5-4.551-14.476.815-29.03-.085-43.448,1.954a34.139,34.139,0,0,0-12.929,4.985c-1.113.675-2.065,1.008-2.891-.318C15.95,95.274,7.995,85.487,3.688,73.707c-7.15-19.555-3.852-37.58,9.44-53.568C23.038,8.22,36.251,2.123,51.4.46c22.961-2.522,41.981,5.293,55.019,24.433,12.544,18.414,13.564,38.047,1.966,57.667-3.186,5.39-6.583,10.655-9.891,15.973a56.876,56.876,0,0,0-4.6,9.141c-2.991,7.56-8.514,11.9-16.588,12.967-9.124,1.2-18.316,1.622-27.482,2.341a24.854,24.854,0,0,0-5.046.788c-4.008,1.167-6,3.7-6.025,7.592-.029,3.844,1.979,6.491,5.92,7.68,4.832,1.457,9.761,1.063,14.69.711,7.709-.55,15.421-1.056,23.131-1.581" transform="translate(90.862 64.227)" fill="#fff"/>
    </g>
  </g>
</svg>
