<svg xmlns="http://www.w3.org/2000/svg" width="18" height="15" fill="none" viewBox="0 0 18 15">
    <path stroke="#5DDBEE" stroke-width="1.2" d="M9.128 6.74c1.671 0 3.026-1.354 3.026-3.025 0-1.67-1.355-3.026-3.026-3.026-1.67 0-3.025 1.355-3.025 3.026 0 1.671 1.354 3.026 3.025 3.026zM4.589 14.305v-1.513c0-.803.319-1.572.886-2.14.567-.567 1.337-.886 2.14-.886h3.025c.803 0 1.572.319 2.14.886.567.568.886 1.337.886 2.14v1.513M13.987 2.737c.557.142 1.051.466 1.404.92.352.455.543 1.013.543 1.588 0 .575-.19 1.134-.543 1.588-.353.454-.847.778-1.404.92M17.223 14.305V13.01c-.003-.571-.195-1.126-.546-1.576-.352-.451-.842-.773-1.396-.916M4.265 2.737c-.557.142-1.051.466-1.404.92-.352.455-.544 1.013-.544 1.588 0 .575.192 1.134.544 1.588.353.454.847.778 1.404.92M1.03 14.305V13.01c.003-.571.195-1.126.546-1.576.352-.451.842-.773 1.396-.916"/>
</svg>
