<svg xmlns="http://www.w3.org/2000/svg" width="18" height="16" fill="none" viewBox="0 0 18 16">
    <path stroke="#85859B" stroke-width="1.2" d="M11.333 2.482c.344-.59 1.027-1.1 1.675-.885l3.25 1.083c.408.136.683.519.683.949v2.654c0 .552-.447 1-1 1h-.625c-.552 0-1 .448-1 1v6c0 .232-.092.455-.256.619-.164.164-.386.256-.619.256h-8.75c-.232 0-.454-.092-.618-.256-.164-.164-.257-.387-.257-.619v-6c0-.552-.447-1-1-1h-.625c-.552 0-1-.448-1-1V3.63c0-.43.276-.813.684-.949l3.25-1.083c.648-.216 1.33.296 1.675.885.112.193.25.372.41.532.493.493 1.16.77 1.856.77.697 0 1.364-.277 1.857-.77.16-.16.298-.34.41-.532z"/>
</svg>
